<svg width="284" height="30" viewBox="0 0 284 30" fill="none" xmlns="http://www.w3.org/2000/svg">
<path d="M18.5393 14.9621C17.9955 16.0189 17.2671 16.9115 16.3437 17.6194C15.4203 18.3376 14.343 18.8712 13.1119 19.2303C11.8807 19.5894 10.5777 19.7638 9.19268 19.7638H2.91375V28.885H0V3.02954H9.67489C11.1318 3.02954 12.4553 3.22448 13.6454 3.60411C14.8355 3.98373 15.8615 4.52752 16.713 5.22521C17.5646 5.92289 18.211 6.78474 18.6726 7.81076C19.1241 8.83677 19.36 9.9859 19.36 11.2684C19.36 12.6741 19.0933 13.9053 18.5495 14.9621H18.5393ZM14.5277 7.14385C13.2555 6.19992 11.5729 5.71769 9.46969 5.71769H2.91375V17.0962H9.3158C10.3828 17.0962 11.3472 16.9628 12.2193 16.6858C13.0914 16.419 13.8506 16.0291 14.4764 15.5264C15.1023 15.0236 15.5845 14.4183 15.923 13.7206C16.2616 13.0229 16.4258 12.2329 16.4258 11.371C16.4258 9.50368 15.7897 8.08778 14.5175 7.14385H14.5277Z" fill="black"/>
<path d="M42.4685 28.885L34.9687 18.8404H27.5817V28.885H24.668V3.02954H35.7895C37.2156 3.02954 38.5083 3.21422 39.6471 3.58359C40.7962 3.95295 41.7709 4.47622 42.5814 5.15339C43.3919 5.83055 44.0177 6.6411 44.4692 7.59529C44.9103 8.53922 45.136 9.59602 45.136 10.7554C45.136 11.843 44.9616 12.8074 44.6231 13.659C44.2742 14.5106 43.792 15.2493 43.1662 15.8752C42.5403 16.5011 41.7914 17.0243 40.9296 17.445C40.0678 17.8657 39.1341 18.1632 38.1184 18.3274L46.0594 28.885H42.4788H42.4685ZM40.4679 7.08229C39.3085 6.1794 37.6773 5.72795 35.5843 5.72795H27.5817V16.2548H35.5432C36.5077 16.2548 37.39 16.1317 38.2108 15.8855C39.0213 15.6392 39.7292 15.2904 40.3243 14.8287C40.9193 14.367 41.381 13.8129 41.7093 13.146C42.0376 12.4791 42.212 11.7301 42.212 10.8888C42.212 9.25743 41.6272 7.99544 40.4679 7.09255V7.08229Z" fill="black"/>
<path d="M85.1376 11.1265C85.3326 11.619 85.6916 12.0704 86.2046 12.4808C86.7176 12.8912 87.4358 13.2606 88.3489 13.5889C89.262 13.9172 90.4316 14.2353 91.8577 14.5328C94.7407 15.169 96.8645 16.0616 98.229 17.2005C99.5935 18.3393 100.281 19.8989 100.281 21.8996C100.281 23.0077 100.065 24.0234 99.6243 24.9366C99.1831 25.8497 98.5881 26.6295 97.8186 27.2656C97.0491 27.9018 96.1258 28.4045 95.0382 28.7431C93.9507 29.0919 92.7708 29.2561 91.4884 29.2561C89.4159 29.2561 87.5281 28.9175 85.8148 28.2506C84.1014 27.5837 82.4701 26.5474 80.9209 25.152L82.7266 23.0077C84.0809 24.2389 85.4454 25.1521 86.8305 25.7574C88.2053 26.3627 89.7955 26.6603 91.591 26.6603C93.3864 26.6603 94.7407 26.2499 95.7872 25.4393C96.8337 24.6288 97.3569 23.5515 97.3569 22.2177C97.3569 21.602 97.2543 21.048 97.0594 20.576C96.8645 20.1041 96.5156 19.6526 96.0232 19.2627C95.5307 18.8729 94.8433 18.5138 93.9712 18.1854C93.0991 17.8674 91.9808 17.5596 90.6163 17.262C89.1389 16.944 87.8462 16.5746 86.7484 16.1539C85.6506 15.7333 84.7375 15.2305 84.0296 14.6354C83.3114 14.0403 82.7779 13.3529 82.4393 12.5629C82.0905 11.7729 81.9263 10.8392 81.9263 9.75161C81.9263 8.66404 82.1315 7.77141 82.5522 6.8993C82.9728 6.03745 83.5576 5.28846 84.3271 4.66259C85.0863 4.03673 85.9892 3.54424 87.0254 3.18514C88.0616 2.82603 89.1902 2.65161 90.4214 2.65161C92.3194 2.65161 93.9712 2.90811 95.3871 3.43138C96.8029 3.95465 98.1777 4.73442 99.5012 5.79121L97.7981 8.04843C96.5874 7.06346 95.3768 6.34525 94.1559 5.90407C92.935 5.46288 91.6628 5.23716 90.329 5.23716C89.4877 5.23716 88.7388 5.35002 88.0616 5.56548C87.3845 5.79121 86.81 6.07849 86.3278 6.45812C85.8455 6.82748 85.4762 7.26866 85.2197 7.79193C84.9632 8.3152 84.8298 8.86924 84.8298 9.45407C84.8298 10.0389 84.9324 10.6237 85.1274 11.1162L85.1376 11.1265Z" fill="black"/>
<path d="M124.767 14.9621C124.224 16.0189 123.495 16.9115 122.572 17.6194C121.648 18.3376 120.571 18.8712 119.34 19.2303C118.109 19.5894 116.806 19.7638 115.421 19.7638H109.142V28.885H106.228V3.02954H115.903C117.36 3.02954 118.683 3.22448 119.873 3.60411C121.064 3.98373 122.09 4.52752 122.941 5.22521C123.793 5.92289 124.439 6.78474 124.901 7.81076C125.352 8.83677 125.588 9.9859 125.588 11.2684C125.588 12.6741 125.321 13.9053 124.778 14.9621H124.767ZM120.756 7.14385C119.484 6.19992 117.801 5.71769 115.698 5.71769H109.142V17.0962H115.544C116.611 17.0962 117.575 16.9628 118.447 16.6858C119.319 16.419 120.079 16.0291 120.704 15.5264C121.33 15.0236 121.812 14.4183 122.151 13.7206C122.49 13.0229 122.654 12.2329 122.654 11.371C122.654 9.50368 122.018 8.08778 120.745 7.14385H120.756Z" fill="black"/>
<path d="M149.579 5.68691H133.81V14.5106H147.917V17.168H133.81V26.2174H149.764V28.8748H130.886V3.02954H149.579V5.68691Z" fill="black"/>
<path d="M175.715 26.6493C174.987 27.2034 174.207 27.6753 173.366 28.0755C172.524 28.4654 171.632 28.7732 170.667 28.9989C169.703 29.2246 168.636 29.3272 167.456 29.3272C165.589 29.3272 163.865 28.9784 162.285 28.291C160.705 27.6035 159.341 26.6596 158.181 25.4694C157.022 24.2793 156.119 22.8634 155.462 21.2423C154.806 19.6212 154.488 17.8667 154.488 15.9993C154.488 14.132 154.816 12.4186 155.462 10.7872C156.109 9.15584 157.022 7.73994 158.181 6.51899C159.341 5.29803 160.715 4.34384 162.316 3.63589C163.916 2.93821 165.661 2.5791 167.559 2.5791C168.739 2.5791 169.806 2.6817 170.749 2.87665C171.693 3.07159 172.576 3.34861 173.386 3.70771C174.197 4.06682 174.946 4.49774 175.643 5.00049C176.331 5.50323 176.998 6.06754 177.634 6.68315L175.643 8.82751C174.535 7.79124 173.345 6.93965 172.083 6.283C170.811 5.6161 169.293 5.28777 167.518 5.28777C166.091 5.28777 164.768 5.55454 163.547 6.09832C162.326 6.64211 161.269 7.3911 160.367 8.35555C159.464 9.32 158.766 10.4384 158.263 11.7311C157.761 13.0239 157.504 14.4193 157.504 15.9275C157.504 17.4358 157.761 18.8311 158.263 20.1342C158.766 21.4372 159.474 22.5761 160.367 23.5303C161.269 24.4947 162.326 25.2437 163.547 25.7977C164.768 26.3518 166.091 26.6288 167.518 26.6288C169.293 26.6288 170.821 26.3005 172.093 25.6541C173.376 24.9975 174.628 24.0843 175.859 22.9044L177.777 24.7923C177.11 25.4797 176.413 26.1056 175.695 26.6596L175.715 26.6493Z" fill="black"/>
<path d="M192.648 28.885H189.734V5.72795H181.054V3.02954H201.327V5.72795H192.648V28.885Z" fill="black"/>
<path d="M229.324 21.0371C228.688 22.6479 227.785 24.074 226.626 25.3053C225.466 26.5365 224.081 27.5112 222.45 28.2397C220.819 28.9681 219.023 29.3272 217.053 29.3272C215.083 29.3272 213.288 28.9681 211.677 28.2602C210.066 27.542 208.681 26.5775 207.522 25.3566C206.363 24.1356 205.47 22.7197 204.844 21.1089C204.218 19.498 203.9 17.7949 203.9 15.9891C203.9 14.1833 204.218 12.4904 204.865 10.8693C205.501 9.25844 206.404 7.83228 207.563 6.60107C208.722 5.36985 210.108 4.39514 211.739 3.66667C213.37 2.93821 215.166 2.5791 217.135 2.5791C219.105 2.5791 220.901 2.93821 222.511 3.64615C224.122 4.36436 225.507 5.32881 226.667 6.54977C227.826 7.77072 228.719 9.18662 229.344 10.7975C229.97 12.4083 230.288 14.1115 230.288 15.9173C230.288 17.723 229.97 19.416 229.324 21.0371ZM226.502 11.8235C226 10.5204 225.292 9.38156 224.379 8.42737C223.466 7.47318 222.388 6.70367 221.147 6.13936C219.906 5.57506 218.541 5.28777 217.064 5.28777C215.586 5.28777 214.222 5.5648 212.98 6.11884C211.739 6.67289 210.672 7.43214 209.789 8.38633C208.907 9.34052 208.209 10.4691 207.707 11.7619C207.204 13.0547 206.948 14.4398 206.948 15.9173C206.948 17.3947 207.204 18.7901 207.707 20.0931C208.209 21.3962 208.917 22.535 209.83 23.4892C210.744 24.4537 211.821 25.2129 213.062 25.7772C214.304 26.3415 215.668 26.6288 217.146 26.6288C218.623 26.6288 219.988 26.3518 221.229 25.7977C222.47 25.2437 223.537 24.4845 224.42 23.5303C225.302 22.5658 226 21.4475 226.502 20.1547C227.005 18.8619 227.262 17.4768 227.262 15.9993C227.262 14.5219 227.005 13.1265 226.502 11.8235Z" fill="black"/>
<path d="M254.256 28.885L246.756 18.8404H239.369V28.885H236.455V3.02954H247.577C249.003 3.02954 250.295 3.21422 251.434 3.58359C252.583 3.95295 253.558 4.47622 254.368 5.15339C255.179 5.83055 255.805 6.6411 256.256 7.59529C256.697 8.53922 256.923 9.59602 256.923 10.7554C256.923 11.843 256.749 12.8074 256.41 13.659C256.072 14.5106 255.579 15.2493 254.953 15.8752C254.327 16.5011 253.579 17.0243 252.717 17.445C251.855 17.8657 250.921 18.1632 249.906 18.3274L257.847 28.885H254.266H254.256ZM252.255 7.08229C251.096 6.1794 249.464 5.72795 247.371 5.72795H239.369V16.2548H247.33C248.295 16.2548 249.177 16.1317 249.998 15.8855C250.808 15.6392 251.516 15.2904 252.111 14.8287C252.706 14.367 253.168 13.8129 253.496 13.146C253.825 12.4791 253.999 11.7301 253.999 10.8888C253.999 9.25743 253.414 7.99544 252.255 7.09255V7.08229Z" fill="black"/>
<path d="M273.248 28.885H270.334V18.6557L259.582 3.02954H263.132L271.832 15.9573L280.604 3.02954H284L273.248 18.6147V28.885Z" fill="black"/>
<path d="M73.2845 0.650879L60.6035 9.89525L68.2162 9.43354L73.2845 0.650879Z" fill="#6F2C91"/>
<path d="M68.2188 9.43354L73.287 0.650879L71.625 16.2565" fill="#8E5BA6"/>
<path d="M74.4497 6.77595L73.6905 13.9273C73.7828 14.4608 73.8444 14.9943 73.8444 15.5484C73.8444 16.8103 73.5879 18.0108 73.1467 19.1086C71.7411 22.5355 68.3759 24.9569 64.4362 24.9569C59.2346 24.9569 55.0281 20.74 55.0281 15.5484C55.0281 14.8301 55.1204 14.1325 55.2743 13.4553C55.5206 12.378 55.9515 11.3622 56.5363 10.4593C57.7879 8.52017 59.727 7.07349 62.0149 6.46815L67.3808 2.55904C66.4369 2.34358 65.4519 2.22046 64.4362 2.22046C57.0698 2.22046 51.0986 8.19185 51.0986 15.5586C51.0986 22.9254 57.0698 28.8968 64.4362 28.8968C71.8027 28.8968 77.7738 22.9254 77.7738 15.5586C77.7738 12.1933 76.5221 9.12552 74.4599 6.78621L74.4497 6.77595Z" fill="black"/>
</svg>
